<?xml version="1.0" encoding="UTF-8"?>
<svg id="Layer_1" data-name="Layer 1" xmlns="http://www.w3.org/2000/svg" viewBox="0 0 16 16">
  <defs>
    <style>
      .cls-1 {
        fill: #fff;
        fill-rule: evenodd;
      }

      .cls-2 {
        fill: #1d1d1b;
      }
    </style>
  </defs>
  <rect class="cls-2" x="0" y="0" width="16" height="16"/>
  <path class="cls-1" d="m2.74,3c-.08.01-.16.32-.32.48-.12.12-.26.11-.34.25-.03.05-.02.14-.05.23-.07.17-.3.19-.3.38,0,.21.19.24.36.39.13.12.14.2.3.26.14.05.34-.1.52-.05.15.04.29.08.33.23.03.14,0,.36-.18.33-.06,0-.32-.1-.65-.06-.39.04-.84.17-.88.61-.02.24.28.53.57.47.2-.04.11-.28.22-.39.14-.15.96.52,1.72.52.32,0,.56-.08.79-.33.02-.02.05-.06.08-.06.03,0,.09.03.11.05.61.49,1.07,1.47,3.31,1.48.32,0,.67.15.97.42.26.24.41.62.56,1,.22.57.63,1.13,1.24,1.75.03.03.54.42.58.45,0,0,.04.09.03.14-.01.37-.07,1.45.74,1.5.2.01.15-.13.15-.22,0-.19-.03-.38.06-.57.14-.26-.29-.39-.28-.96,0-.43-.35-.35-.53-.68-.1-.19-.2-.29-.19-.52.04-1.3-.28-2.15-.43-2.36-.12-.16-.23-.22-.11-.29.67-.44.82-.86.82-.86.36-.84.68-1.61,1.12-1.95.09-.07.32-.24.46-.31.41-.2.63-.31.75-.43.19-.19.34-.57.16-.81-.23-.29-.62-.06-.79.04-1.24.73-1.42,2.03-1.85,2.77-.34.59-.9,1.03-1.39,1.07-.37.03-.77-.05-1.17-.22-.97-.43-1.5-.98-1.63-1.07-.26-.2-2.29-2.19-3.93-2.27,0,0-.2-.41-.26-.41-.12-.02-.24.24-.33.27-.08.03-.22-.28-.31-.27h0Z"/>
</svg>