<?xml version="1.0" encoding="UTF-8"?>
<svg id="Layer_1" data-name="Layer 1" xmlns="http://www.w3.org/2000/svg" viewBox="0 0 16 16">
  <defs>
    <style>
      .cls-1 {
        fill: #fff;
        fill-rule: evenodd;
      }

      .cls-2 {
        fill: #1d1d1b;
      }
    </style>
  </defs>
  <rect class="cls-2" y="0" width="16" height="16"/>
  <path class="cls-1" d="m3.45,3.67c-.07.01-.14.28-.28.41-.1.1-.23.09-.3.22-.03.05-.02.12-.05.2-.06.15-.26.16-.26.33,0,.18.17.21.31.34.11.1.12.17.26.22.12.04.29-.09.45-.04.13.04.25.07.28.2.03.12,0,.31-.16.29-.05,0-.28-.08-.56-.05-.34.04-.73.15-.76.53-.02.21.24.46.49.41.17-.03.09-.24.19-.34.12-.13.83.45,1.49.45.28,0,.48-.07.69-.28.02-.02.04-.05.07-.05.03,0,.08.03.09.04.53.42.93,1.28,2.87,1.29.27,0,.58.13.84.36.23.21.36.54.49.87.19.5.54.98,1.07,1.51.03.03.46.37.5.39,0,0,.04.08.03.12-.01.32-.06,1.26.64,1.3.17,0,.13-.11.13-.19,0-.16-.03-.32.06-.49.12-.23-.25-.34-.24-.83,0-.37-.3-.31-.46-.59-.09-.16-.17-.25-.17-.45.04-1.12-.24-1.86-.38-2.04-.11-.14-.2-.19-.1-.25.58-.38.71-.74.71-.74.31-.73.59-1.39.97-1.69.08-.06.28-.21.4-.27.36-.17.55-.27.65-.37.16-.16.29-.49.14-.7-.2-.25-.54-.05-.69.04-1.07.64-1.23,1.76-1.6,2.4-.3.51-.78.89-1.21.92-.32.02-.67-.04-1.02-.19-.84-.37-1.3-.85-1.41-.93-.23-.17-1.98-1.9-3.4-1.97,0,0-.18-.35-.22-.36-.1-.01-.21.21-.29.24-.07.02-.19-.24-.26-.23h0Z"/>
</svg>