<?xml version="1.0" encoding="UTF-8"?>
<svg id="Layer_1" data-name="Layer 1" xmlns="http://www.w3.org/2000/svg" viewBox="0 0 180.84 140.81">
  <defs>
    <style>
      .cls-1 {
        fill: #fff;
        fill-rule: evenodd;
      }
    </style>
  </defs>
  <path class="cls-1" d="m17.1.6c-1.16.17-2.28,4.45-4.52,6.68-1.64,1.6-3.69,1.51-4.78,3.5-.41.74-.28,2.01-.75,3.23-.92,2.43-4.15,2.65-4.15,5.3,0,2.87,2.69,3.41,5.03,5.45,1.83,1.63,2,2.76,4.22,3.56,1.89.64,4.7-1.46,7.23-.7,2.08.62,4.07,1.06,4.54,3.19.41,1.97-.03,5.02-2.55,4.67-.85-.1-4.53-1.33-9.05-.86C6.85,35.25.63,37.03.02,43.12c-.34,3.4,3.87,7.41,7.93,6.6,2.81-.55,1.48-3.87,3.01-5.48,2-2.06,13.37,7.2,23.93,7.2,4.44,0,7.75-1.12,11.04-4.56.31-.26.68-.83,1.16-.86.45.04,1.23.48,1.49.66,8.5,6.83,14.94,20.55,46.2,20.71,4.4.03,9.4,2.12,13.49,5.85,3.65,3.37,5.78,8.62,7.85,13.95,3.13,7.98,8.74,15.76,17.23,24.4.46.46,7.46,5.9,8.02,6.31.09.06.6,1.29.42,1.97-.21,5.19-.96,20.26,10.28,20.94,2.74.14,2.03-1.79,2.03-3.12,0-2.63-.48-5.24.9-7.92,1.89-3.7-4.01-5.4-3.84-13.39.12-5.96-4.89-4.94-7.42-9.48-1.46-2.63-2.76-4.03-2.67-7.25.57-18.11-3.85-30.01-6.06-32.93-1.72-2.21-3.15-3.08-1.57-4.1,9.38-6.2,11.5-11.96,11.5-11.96,4.99-11.72,9.47-22.43,15.66-27.15,1.25-.97,4.44-3.36,6.4-4.29,5.78-2.72,8.81-4.37,10.49-6,2.65-2.58,4.75-7.97,2.21-11.24-3.16-4.03-8.63-.83-11.04.6-17.24,10.23-19.78,28.28-25.76,38.65-4.77,8.29-12.51,14.37-19.44,14.87-5.19.39-10.79-.66-16.36-3.11-13.56-5.94-20.97-13.62-22.73-14.97-3.64-2.81-31.91-30.57-54.82-31.7,0,0-2.84-5.69-3.56-5.79-1.68-.21-3.39,3.4-4.62,3.82-1.16.38-3.1-3.91-4.27-3.72h0Z"/>
</svg>